name rise32.9588peak41.5061fall63.4684.mot
datacolumns 19
datarows 21
range 1.52999500000000 1.56332400000000
endheader
time	ground_force1_vx	ground_force1_vy	ground_force1_vz	ground_force1_px	ground_force1_py	ground_force1_pz	ground_force2_vx	ground_force2_vy	ground_force2_vz	ground_force2_px	ground_force2_py	ground_force2_pz	ground_torque1_x	ground_torque1_y	ground_torque1_z	ground_torque2_x	ground_torque2_y	ground_torque2_z	
1.52999500000000	57.50373100000000	745.43539799999996	49.30442500000000	0.30542400000000	0.00000000000000	0.10089000000000	0.00000000000000	0.00000000000000	0.00000000000000	0.00000000000000	0.00000000000000	0.00000000000000	0.00000000000000	17.68020300000000	0.00000000000000	0.00000000000000	0.00000000000000	0.00000000000000	
1.53166100000000	56.83837800000000	747.25491000000000	49.39379800000000	0.30431300000000	0.00000000000000	0.10091200000000	0.00000000000000	0.00000000000000	0.00000000000000	0.00000000000000	0.00000000000000	0.00000000000000	0.00000000000000	17.73620400000000	0.00000000000000	0.00000000000000	0.00000000000000	0.00000000000000	
1.53332800000000	56.17795300000000	748.99327300000004	49.47700300000000	0.30323300000000	0.00000000000000	0.10093100000000	0.00000000000000	0.00000000000000	0.00000000000000	0.00000000000000	0.00000000000000	0.00000000000000	0.00000000000000	17.79054800000000	0.00000000000000	0.00000000000000	0.00000000000000	0.00000000000000	
1.53499100000000	55.52324100000000	750.65062899999998	49.55399900000000	0.30218400000000	0.00000000000000	0.10095000000000	0.00000000000000	0.00000000000000	0.00000000000000	0.00000000000000	0.00000000000000	0.00000000000000	0.00000000000000	17.84316200000000	0.00000000000000	0.00000000000000	0.00000000000000	0.00000000000000	
1.53665900000000	54.87492800000000	752.22705599999995	49.62470600000000	0.30116600000000	0.00000000000000	0.10096700000000	0.00000000000000	0.00000000000000	0.00000000000000	0.00000000000000	0.00000000000000	0.00000000000000	0.00000000000000	17.89394500000000	0.00000000000000	0.00000000000000	0.00000000000000	0.00000000000000	
1.53832400000000	54.23360500000000	753.72257400000001	49.68900600000000	0.30017600000000	0.00000000000000	0.10098300000000	0.00000000000000	0.00000000000000	0.00000000000000	0.00000000000000	0.00000000000000	0.00000000000000	0.00000000000000	17.94277400000000	0.00000000000000	0.00000000000000	0.00000000000000	0.00000000000000	
1.53999100000000	53.59976800000000	755.13715800000000	49.74674700000000	0.29921500000000	0.00000000000000	0.10099800000000	0.00000000000000	0.00000000000000	0.00000000000000	0.00000000000000	0.00000000000000	0.00000000000000	0.00000000000000	17.98950600000000	0.00000000000000	0.00000000000000	0.00000000000000	0.00000000000000	
1.54166500000000	52.97381700000000	756.47074699999996	49.79775500000000	0.29828000000000	0.00000000000000	0.10101200000000	0.00000000000000	0.00000000000000	0.00000000000000	0.00000000000000	0.00000000000000	0.00000000000000	0.00000000000000	18.03398200000000	0.00000000000000	0.00000000000000	0.00000000000000	0.00000000000000	
1.54333000000000	52.35606800000000	757.72325799999999	49.84182800000000	0.29737200000000	0.00000000000000	0.10102500000000	0.00000000000000	0.00000000000000	0.00000000000000	0.00000000000000	0.00000000000000	0.00000000000000	0.00000000000000	18.07602700000000	0.00000000000000	0.00000000000000	0.00000000000000	0.00000000000000	
1.54499400000000	51.74674600000000	758.89459299999999	49.87875000000000	0.29648900000000	0.00000000000000	0.10103600000000	0.00000000000000	0.00000000000000	0.00000000000000	0.00000000000000	0.00000000000000	0.00000000000000	0.00000000000000	18.11545500000000	0.00000000000000	0.00000000000000	0.00000000000000	0.00000000000000	
1.54666200000000	51.14599400000000	759.98465099999999	49.90828800000000	0.29562800000000	0.00000000000000	0.10104700000000	0.00000000000000	0.00000000000000	0.00000000000000	0.00000000000000	0.00000000000000	0.00000000000000	0.00000000000000	18.15207400000000	0.00000000000000	0.00000000000000	0.00000000000000	0.00000000000000	
1.54832900000000	50.55387800000000	760.99334099999999	49.93020400000000	0.29478900000000	0.00000000000000	0.10105600000000	0.00000000000000	0.00000000000000	0.00000000000000	0.00000000000000	0.00000000000000	0.00000000000000	0.00000000000000	18.18568200000000	0.00000000000000	0.00000000000000	0.00000000000000	0.00000000000000	
1.55000100000000	49.97038600000000	761.92058899999995	49.94425400000000	0.29397000000000	0.00000000000000	0.10106500000000	0.00000000000000	0.00000000000000	0.00000000000000	0.00000000000000	0.00000000000000	0.00000000000000	0.00000000000000	18.21607700000000	0.00000000000000	0.00000000000000	0.00000000000000	0.00000000000000	
1.55166200000000	49.39543700000000	762.76635099999999	49.95019600000000	0.29316900000000	0.00000000000000	0.10107300000000	0.00000000000000	0.00000000000000	0.00000000000000	0.00000000000000	0.00000000000000	0.00000000000000	0.00000000000000	18.24305600000000	0.00000000000000	0.00000000000000	0.00000000000000	0.00000000000000	
1.55333500000000	48.82888500000000	763.53062100000000	49.94779200000000	0.29238400000000	0.00000000000000	0.10108000000000	0.00000000000000	0.00000000000000	0.00000000000000	0.00000000000000	0.00000000000000	0.00000000000000	0.00000000000000	18.26641700000000	0.00000000000000	0.00000000000000	0.00000000000000	0.00000000000000	
1.55499600000000	48.27052200000000	764.21344199999999	49.93681300000000	0.29161300000000	0.00000000000000	0.10108600000000	0.00000000000000	0.00000000000000	0.00000000000000	0.00000000000000	0.00000000000000	0.00000000000000	0.00000000000000	18.28596700000000	0.00000000000000	0.00000000000000	0.00000000000000	0.00000000000000	
1.55666100000000	47.72008400000000	764.81491200000005	49.91704400000000	0.29085400000000	0.00000000000000	0.10109100000000	0.00000000000000	0.00000000000000	0.00000000000000	0.00000000000000	0.00000000000000	0.00000000000000	0.00000000000000	18.30151500000000	0.00000000000000	0.00000000000000	0.00000000000000	0.00000000000000	
1.55833300000000	47.17725700000000	765.33519799999999	49.88828600000000	0.29010500000000	0.00000000000000	0.10109600000000	0.00000000000000	0.00000000000000	0.00000000000000	0.00000000000000	0.00000000000000	0.00000000000000	0.00000000000000	18.31288400000000	0.00000000000000	0.00000000000000	0.00000000000000	0.00000000000000	
1.55999500000000	46.64168100000000	765.77453800000001	49.85036200000000	0.28936500000000	0.00000000000000	0.10110100000000	0.00000000000000	0.00000000000000	0.00000000000000	0.00000000000000	0.00000000000000	0.00000000000000	0.00000000000000	18.31990700000000	0.00000000000000	0.00000000000000	0.00000000000000	0.00000000000000	
1.56166400000000	46.11295900000000	766.13325399999997	49.80311600000000	0.28863000000000	0.00000000000000	0.10110400000000	0.00000000000000	0.00000000000000	0.00000000000000	0.00000000000000	0.00000000000000	0.00000000000000	0.00000000000000	18.32243200000000	0.00000000000000	0.00000000000000	0.00000000000000	0.00000000000000	
1.56332400000000	45.59065500000000	766.41175599999997	49.74641900000000	0.28789900000000	0.00000000000000	0.10110800000000	0.00000000000000	0.00000000000000	0.00000000000000	0.00000000000000	0.00000000000000	0.00000000000000	0.00000000000000	18.32032000000000	0.00000000000000	0.00000000000000	0.00000000000000	0.00000000000000	
